  999
file created by SolveSpace
  0
SECTION
  2
HEADER
  9
$ACADVER
  1
AC1006
  9
$ANGDIR
  70
0
  9
$AUNITS
  70
0
  9
$AUPREC
  70
0
  9
$INSBASE
  10
0.0
  20
0.0
  30
0.0
  9
$EXTMIN
  10
0.0
  20
0.0
  9
$EXTMAX
  10
10000.0
  20
10000.0
  0
ENDSEC
  0
SECTION
  2
ENTITIES
  0
LINE
  8
0
  10
-10.545035
  20
-5.514860
  30
0.000000
  11
-10.433824
  21
-2.389796
  31
0.000000
  0
ARC
  8
0
  10
-10.429378
  20
-2.264875
  30
0.000000
  40
0.125000
  50
-92.038123
  51
-2.038123
  0
ARC
  8
0
  10
-10.429378
  20
-2.264875
  30
0.000000
  40
0.125000
  50
-2.038123
  51
87.961877
  0
LINE
  8
0
  10
-10.424933
  20
-2.139954
  30
0.000000
  11
-10.904629
  21
-2.122883
  31
0.000000
  0
ARC
  8
0
  10
-10.909074
  20
-2.247804
  30
0.000000
  40
0.125000
  50
87.961877
  51
177.961877
  0
ARC
  8
0
  10
-10.909074
  20
-2.247804
  30
0.000000
  40
0.125000
  50
177.961877
  51
-92.038123
  0
LINE
  8
0
  10
-10.913520
  20
-2.372725
  30
0.000000
  11
-11.024738
  21
-5.497978
  31
0.000000
  0
LINE
  8
0
  10
-11.024738
  20
-5.497978
  30
0.000000
  11
-10.545035
  21
-5.514860
  31
0.000000
  0
LINE
  8
0
  10
-11.988624
  20
-3.711777
  30
0.000000
  11
-11.988624
  21
-18.256419
  31
0.000000
  0
LINE
  8
0
  10
-11.988624
  20
-18.256419
  30
0.000000
  11
-11.478779
  21
-18.256419
  31
0.000000
  0
LINE
  8
0
  10
-11.478779
  20
-18.256419
  30
0.000000
  11
-11.028730
  21
-5.747992
  31
0.000000
  0
ARC
  8
0
  10
-11.024138
  20
-5.623076
  30
0.000000
  40
0.125000
  50
177.939408
  51
-92.105532
  0
ARC
  8
0
  10
-11.024138
  20
-5.623076
  30
0.000000
  40
0.125000
  50
87.984347
  51
177.939408
  0
LINE
  8
0
  10
-11.019741
  20
-5.498153
  30
0.000000
  11
-10.550032
  21
-5.514685
  31
0.000000
  0
ARC
  8
0
  10
-10.554429
  20
-5.639607
  30
0.000000
  40
0.125000
  50
-2.015653
  51
87.984347
  0
ARC
  8
0
  10
-10.554429
  20
-5.639607
  30
0.000000
  40
0.125000
  50
-92.015653
  51
-2.015653
  0
LINE
  8
0
  10
-10.558825
  20
-5.764530
  30
0.000000
  11
-10.998469
  21
-18.256419
  31
0.000000
  0
LINE
  8
0
  10
-10.998469
  20
-18.256419
  30
0.000000
  11
-10.488624
  21
-18.256419
  31
0.000000
  0
LINE
  8
0
  10
-10.488624
  20
-18.256419
  30
0.000000
  11
-9.487278
  21
-3.317251
  31
0.000000
  0
ARC
  8
0
  10
-8.887596
  20
-3.357446
  30
0.000000
  40
0.601027
  50
90.000000
  51
176.165303
  0
LINE
  8
0
  10
-8.887596
  20
-2.756419
  30
0.000000
  11
2.846400
  21
-2.756419
  31
0.000000
  0
ARC
  8
0
  10
2.846400
  20
-5.453217
  30
0.000000
  40
2.696798
  50
17.278629
  51
90.000000
  0
LINE
  8
0
  10
5.421496
  20
-4.652217
  30
0.000000
  11
9.653167
  21
-18.256419
  31
0.000000
  0
LINE
  8
0
  10
9.653167
  20
-18.256419
  30
0.000000
  11
10.156069
  21
-18.256419
  31
0.000000
  0
LINE
  8
0
  10
10.156069
  20
-18.256419
  30
0.000000
  11
7.115659
  21
-5.805116
  31
0.000000
  0
ARC
  8
0
  10
7.086053
  20
-5.683673
  30
0.000000
  40
0.125000
  50
-166.277807
  51
-76.299731
  0
ARC
  8
0
  10
7.086053
  20
-5.683673
  30
0.000000
  40
0.125000
  50
103.744116
  51
-166.277807
  0
LINE
  8
0
  10
7.056355
  20
-5.562252
  30
0.000000
  11
7.512897
  21
-5.450586
  31
0.000000
  0
ARC
  8
0
  10
7.542596
  20
-5.572007
  30
0.000000
  40
0.125000
  50
13.766039
  51
103.744116
  0
ARC
  8
0
  10
7.542596
  20
-5.572007
  30
0.000000
  40
0.125000
  50
-76.212037
  51
13.766039
  0
LINE
  8
0
  10
7.572387
  20
-5.693405
  30
0.000000
  11
10.650264
  21
-18.256419
  31
0.000000
  0
LINE
  8
0
  10
10.650264
  20
-18.256419
  30
0.000000
  11
11.153167
  21
-18.256419
  31
0.000000
  0
LINE
  8
0
  10
11.153167
  20
-18.256419
  30
0.000000
  11
8.246476
  21
-3.143600
  31
0.000000
  0
ARC
  8
0
  10
15.248816
  20
-1.796820
  30
0.000000
  40
7.130680
  50
170.000000
  51
-169.113085
  0
LINE
  8
0
  10
8.226468
  20
-0.558590
  30
0.000000
  11
10.470483
  21
12.167853
  31
0.000000
  0
ARC
  8
0
  10
13.272107
  20
11.673851
  30
0.000000
  40
2.844844
  50
113.979647
  51
170.000000
  0
ARC
  8
0
  10
12.063095
  20
14.391936
  30
0.000000
  40
0.130000
  50
-66.020353
  51
-10.000000
  0
LINE
  8
0
  10
12.191120
  20
14.369362
  30
0.000000
  11
12.526235
  21
16.269894
  31
0.000000
  0
LINE
  8
0
  10
12.526235
  20
16.269894
  30
0.000000
  11
12.027382
  21
16.086498
  31
0.000000
  0
ARC
  8
0
  10
11.982525
  20
16.208514
  30
0.000000
  40
0.130000
  50
-159.814820
  51
-69.814820
  0
ARC
  8
0
  10
11.982525
  20
16.208514
  30
0.000000
  40
0.130000
  50
110.185180
  51
-159.814820
  0
LINE
  8
0
  10
11.937668
  20
16.330530
  30
0.000000
  11
12.103952
  21
16.391661
  31
0.000000
  0
LINE
  8
0
  10
12.103952
  20
16.391661
  30
0.000000
  11
12.017688
  21
16.626307
  31
0.000000
  0
LINE
  8
0
  10
12.017688
  20
16.626307
  30
0.000000
  11
11.019982
  21
16.259516
  31
0.000000
  0
LINE
  8
0
  10
11.019982
  20
16.259516
  30
0.000000
  11
11.106246
  21
16.024870
  31
0.000000
  0
LINE
  8
0
  10
11.106246
  20
16.024870
  30
0.000000
  11
11.272531
  21
16.086002
  31
0.000000
  0
ARC
  8
0
  10
11.317388
  20
15.963986
  30
0.000000
  40
0.130000
  50
20.185180
  51
110.185180
  0
ARC
  8
0
  10
11.317388
  20
15.963986
  30
0.000000
  40
0.130000
  50
-69.814820
  51
20.185180
  0
ARC
  8
0
  10
13.272107
  20
11.673851
  30
0.000000
  40
4.584844
  50
114.617592
  51
158.897520
  0
ARC
  8
0
  10
8.870196
  20
13.361858
  30
0.000000
  40
0.130000
  50
-106.670068
  51
-16.670068
  0
ARC
  8
0
  10
8.870196
  20
13.361858
  30
0.000000
  40
0.130000
  50
163.329932
  51
-106.670068
  0
LINE
  8
0
  10
8.745660
  20
13.399149
  30
0.000000
  11
8.796481
  21
13.568869
  31
0.000000
  0
LINE
  8
0
  10
8.796481
  20
13.568869
  30
0.000000
  11
8.556988
  21
13.640584
  31
0.000000
  0
LINE
  8
0
  10
8.556988
  20
13.640584
  30
0.000000
  11
8.252058
  21
12.622267
  31
0.000000
  0
LINE
  8
0
  10
8.252058
  20
12.622267
  30
0.000000
  11
8.491551
  21
12.550552
  31
0.000000
  0
LINE
  8
0
  10
8.491551
  20
12.550552
  30
0.000000
  11
8.542373
  21
12.720271
  31
0.000000
  0
ARC
  8
0
  10
8.666909
  20
12.682979
  30
0.000000
  40
0.130000
  50
73.329932
  51
163.329932
  0
ARC
  8
0
  10
8.666909
  20
12.682979
  30
0.000000
  40
0.130000
  50
-16.670068
  51
73.329932
  0
ARC
  8
0
  10
13.272107
  20
11.673851
  30
0.000000
  40
4.584844
  50
167.762344
  51
170.000000
  0
LINE
  8
0
  10
8.756918
  20
12.470001
  30
0.000000
  11
8.172722
  21
9.156863
  31
0.000000
  0
ARC
  8
0
  10
8.044697
  20
9.179437
  30
0.000000
  40
0.130000
  50
-100.000000
  51
-10.000000
  0
ARC
  8
0
  10
8.044697
  20
9.179437
  30
0.000000
  40
0.130000
  50
170.000000
  51
-100.000000
  0
LINE
  8
0
  10
7.916672
  20
9.202012
  30
0.000000
  11
7.947436
  21
9.376486
  31
0.000000
  0
LINE
  8
0
  10
7.947436
  20
9.376486
  30
0.000000
  11
7.701235
  21
9.419898
  31
0.000000
  0
LINE
  8
0
  10
7.701235
  20
9.419898
  30
0.000000
  11
7.516648
  21
8.373055
  31
0.000000
  0
LINE
  8
0
  10
7.516648
  20
8.373055
  30
0.000000
  11
7.762850
  21
8.329643
  31
0.000000
  0
LINE
  8
0
  10
7.762850
  20
8.329643
  30
0.000000
  11
7.793614
  21
8.504116
  31
0.000000
  0
ARC
  8
0
  10
7.921639
  20
8.481542
  30
0.000000
  40
0.130000
  50
80.000000
  51
170.000000
  0
ARC
  8
0
  10
7.921639
  20
8.481542
  30
0.000000
  40
0.130000
  50
-10.000000
  51
80.000000
  0
LINE
  8
0
  10
8.049664
  20
8.458968
  30
0.000000
  11
7.434375
  21
4.969492
  31
0.000000
  0
ARC
  8
0
  10
7.306350
  20
4.992066
  30
0.000000
  40
0.130000
  50
-100.000000
  51
-10.000000
  0
ARC
  8
0
  10
7.306350
  20
4.992066
  30
0.000000
  40
0.130000
  50
170.000000
  51
-100.000000
  0
LINE
  8
0
  10
7.178325
  20
5.014640
  30
0.000000
  11
7.209090
  21
5.189114
  31
0.000000
  0
LINE
  8
0
  10
7.209090
  20
5.189114
  30
0.000000
  11
6.962888
  21
5.232526
  31
0.000000
  0
LINE
  8
0
  10
6.962888
  20
5.232526
  30
0.000000
  11
6.778301
  21
4.185683
  31
0.000000
  0
LINE
  8
0
  10
6.778301
  20
4.185683
  30
0.000000
  11
7.024503
  21
4.142271
  31
0.000000
  0
LINE
  8
0
  10
7.024503
  20
4.142271
  30
0.000000
  11
7.055268
  21
4.316745
  31
0.000000
  0
ARC
  8
0
  10
7.183293
  20
4.294171
  30
0.000000
  40
0.130000
  50
80.000000
  51
170.000000
  0
ARC
  8
0
  10
7.183293
  20
4.294171
  30
0.000000
  40
0.130000
  50
-10.000000
  51
80.000000
  0
LINE
  8
0
  10
7.311318
  20
4.271596
  30
0.000000
  11
7.095739
  21
3.048988
  31
0.000000
  0
ARC
  8
0
  10
3.156508
  20
3.743581
  30
0.000000
  40
4.000000
  50
-90.000000
  51
-10.000000
  0
LINE
  8
0
  10
3.156508
  20
-0.256419
  30
0.000000
  11
-2.064214
  21
-0.256419
  31
0.000000
  0
ARC
  8
0
  10
-2.064214
  20
-0.126419
  30
0.000000
  40
0.130000
  50
180.000000
  51
-90.000000
  0
ARC
  8
0
  10
-2.064214
  20
-0.126419
  30
0.000000
  40
0.130000
  50
90.000000
  51
180.000000
  0
LINE
  8
0
  10
-2.064214
  20
0.003581
  30
0.000000
  11
-1.887049
  21
0.003581
  31
0.000000
  0
LINE
  8
0
  10
-1.887049
  20
0.003581
  30
0.000000
  11
-1.887049
  21
0.253581
  31
0.000000
  0
LINE
  8
0
  10
-1.887049
  20
0.253581
  30
0.000000
  11
-2.950041
  21
0.253581
  31
0.000000
  0
LINE
  8
0
  10
-2.950041
  20
0.253581
  30
0.000000
  11
-2.950041
  21
0.003581
  31
0.000000
  0
LINE
  8
0
  10
-2.950041
  20
0.003581
  30
0.000000
  11
-2.772876
  21
0.003581
  31
0.000000
  0
ARC
  8
0
  10
-2.772876
  20
-0.126419
  30
0.000000
  40
0.130000
  50
0.000000
  51
90.000000
  0
ARC
  8
0
  10
-2.772876
  20
-0.126419
  30
0.000000
  40
0.130000
  50
-90.000000
  51
0.000000
  0
LINE
  8
0
  10
-2.772876
  20
-0.256419
  30
0.000000
  11
-6.316183
  21
-0.256419
  31
0.000000
  0
ARC
  8
0
  10
-6.316183
  20
-0.126419
  30
0.000000
  40
0.130000
  50
180.000000
  51
-90.000000
  0
ARC
  8
0
  10
-6.316183
  20
-0.126419
  30
0.000000
  40
0.130000
  50
90.000000
  51
180.000000
  0
LINE
  8
0
  10
-6.316183
  20
0.003581
  30
0.000000
  11
-6.139017
  21
0.003581
  31
0.000000
  0
LINE
  8
0
  10
-6.139017
  20
0.003581
  30
0.000000
  11
-6.139017
  21
0.253581
  31
0.000000
  0
LINE
  8
0
  10
-6.139017
  20
0.253581
  30
0.000000
  11
-7.202010
  21
0.253581
  31
0.000000
  0
LINE
  8
0
  10
-7.202010
  20
0.253581
  30
0.000000
  11
-7.202010
  21
0.003581
  31
0.000000
  0
LINE
  8
0
  10
-7.202010
  20
0.003581
  30
0.000000
  11
-7.024844
  21
0.003581
  31
0.000000
  0
ARC
  8
0
  10
-7.024844
  20
-0.126419
  30
0.000000
  40
0.130000
  50
0.000000
  51
90.000000
  0
ARC
  8
0
  10
-7.024844
  20
-0.126419
  30
0.000000
  40
0.130000
  50
-90.000000
  51
0.000000
  0
LINE
  8
0
  10
-7.024844
  20
-0.256419
  30
0.000000
  11
-8.887596
  21
-0.256419
  31
0.000000
  0
ARC
  8
0
  10
-8.887596
  20
-3.357446
  30
0.000000
  40
3.101027
  50
90.000000
  51
121.050580
  0
ARC
  8
0
  10
-10.566429
  20
-0.597776
  30
0.000000
  40
0.130000
  50
-142.388339
  51
-52.388339
  0
ARC
  8
0
  10
-10.566429
  20
-0.597776
  30
0.000000
  40
0.130000
  50
127.611661
  51
-142.388339
  0
LINE
  8
0
  10
-10.645769
  20
-0.494795
  30
0.000000
  11
-10.505425
  21
-0.386670
  31
0.000000
  0
LINE
  8
0
  10
-10.505425
  20
-0.386670
  30
0.000000
  11
-10.658002
  21
-0.188628
  31
0.000000
  0
LINE
  8
0
  10
-10.658002
  20
-0.188628
  30
0.000000
  11
-11.500067
  21
-0.837379
  31
0.000000
  0
LINE
  8
0
  10
-11.500067
  20
-0.837379
  30
0.000000
  11
-11.347491
  21
-1.035421
  31
0.000000
  0
LINE
  8
0
  10
-11.347491
  20
-1.035421
  30
0.000000
  11
-11.207146
  21
-0.927296
  31
0.000000
  0
ARC
  8
0
  10
-11.127807
  20
-1.030277
  30
0.000000
  40
0.130000
  50
37.611661
  51
127.611661
  0
ARC
  8
0
  10
-11.127807
  20
-1.030277
  30
0.000000
  40
0.130000
  50
-52.388339
  51
37.611661
  0
ARC
  8
0
  10
-8.887596
  20
-3.357446
  30
0.000000
  40
3.101027
  50
134.172742
  51
180.000000
  0
LINE
  8
0
  10
-11.988624
  20
-3.357446
  30
0.000000
  11
-12.498624
  21
-3.357446
  31
0.000000
  0
LINE
  8
0
  10
-12.498624
  20
-3.357446
  30
0.000000
  11
-12.498624
  21
-3.888942
  31
0.000000
  0
LINE
  8
0
  10
-12.498624
  20
-3.888942
  30
0.000000
  11
-12.248624
  21
-3.888942
  31
0.000000
  0
LINE
  8
0
  10
-12.248624
  20
-3.888942
  30
0.000000
  11
-12.248624
  21
-3.711777
  31
0.000000
  0
ARC
  8
0
  10
-12.118624
  20
-3.711777
  30
0.000000
  40
0.130000
  50
90.000000
  51
180.000000
  0
ARC
  8
0
  10
-12.118624
  20
-3.711777
  30
0.000000
  40
0.130000
  50
0.000000
  51
90.000000
  0
LINE
  8
0
  10
7.517754
  20
-5.449398
  30
0.000000
  11
7.051498
  21
-5.563440
  31
0.000000
  0
LINE
  8
0
  10
7.051498
  20
-5.563440
  30
0.000000
  11
6.132536
  21
-1.806281
  31
0.000000
  0
ARC
  8
0
  10
6.102838
  20
-1.684860
  30
0.000000
  40
0.125000
  50
-166.255884
  51
-76.255884
  0
ARC
  8
0
  10
6.102838
  20
-1.684860
  30
0.000000
  40
0.125000
  50
103.744116
  51
-166.255884
  0
LINE
  8
0
  10
6.073140
  20
-1.563440
  30
0.000000
  11
6.539396
  21
-1.449398
  31
0.000000
  0
ARC
  8
0
  10
6.569094
  20
-1.570819
  30
0.000000
  40
0.125000
  50
13.744116
  51
103.744116
  0
ARC
  8
0
  10
6.569094
  20
-1.570819
  30
0.000000
  40
0.125000
  50
-76.255884
  51
13.744116
  0
LINE
  8
0
  10
6.598792
  20
-1.692240
  30
0.000000
  11
7.517754
  21
-5.449398
  31
0.000000
  0
ENDSEC
  0
EOF
