  999
file created by SolveSpace
  0
SECTION
  2
HEADER
  9
$ACADVER
  1
AC1006
  9
$ANGDIR
  70
0
  9
$AUNITS
  70
0
  9
$AUPREC
  70
0
  9
$INSBASE
  10
0.0
  20
0.0
  30
0.0
  9
$EXTMIN
  10
0.0
  20
0.0
  9
$EXTMAX
  10
10000.0
  20
10000.0
  0
ENDSEC
  0
SECTION
  2
ENTITIES
  0
LINE
  8
0
  10
-10.000248
  20
-17.570866
  30
0.000000
  11
-10.000248
  21
-17.820866
  31
0.000000
  0
ARC
  8
0
  10
-10.000248
  20
-17.945866
  30
0.000000
  40
0.125000
  50
90.000000
  51
180.000000
  0
ARC
  8
0
  10
-10.000248
  20
-17.945866
  30
0.000000
  40
0.125000
  50
180.000000
  51
-90.000000
  0
LINE
  8
0
  10
-10.000248
  20
-18.070866
  30
0.000000
  11
-9.500248
  21
-18.070866
  31
0.000000
  0
ARC
  8
0
  10
-9.500248
  20
-17.945866
  30
0.000000
  40
0.125000
  50
-90.000000
  51
0.000000
  0
ARC
  8
0
  10
-9.500248
  20
-17.945866
  30
0.000000
  40
0.125000
  50
0.000000
  51
90.000000
  0
LINE
  8
0
  10
-9.500248
  20
-17.820866
  30
0.000000
  11
-9.500248
  21
-17.570866
  31
0.000000
  0
LINE
  8
0
  10
-9.500248
  20
-17.570866
  30
0.000000
  11
-10.000248
  21
-17.570866
  31
0.000000
  0
LINE
  8
0
  10
9.500248
  20
-17.570866
  30
0.000000
  11
9.500248
  21
-17.820866
  31
0.000000
  0
ARC
  8
0
  10
9.500248
  20
-17.945866
  30
0.000000
  40
0.125000
  50
90.000000
  51
180.000000
  0
ARC
  8
0
  10
9.500248
  20
-17.945866
  30
0.000000
  40
0.125000
  50
180.000000
  51
-90.000000
  0
LINE
  8
0
  10
9.500248
  20
-18.070866
  30
0.000000
  11
10.000248
  21
-18.070866
  31
0.000000
  0
ARC
  8
0
  10
10.000248
  20
-17.945866
  30
0.000000
  40
0.125000
  50
-90.000000
  51
0.000000
  0
ARC
  8
0
  10
10.000248
  20
-17.945866
  30
0.000000
  40
0.125000
  50
0.000000
  51
90.000000
  0
LINE
  8
0
  10
10.000248
  20
-17.820866
  30
0.000000
  11
10.000248
  21
-17.570866
  31
0.000000
  0
LINE
  8
0
  10
10.000248
  20
-17.570866
  30
0.000000
  11
9.500248
  21
-17.570866
  31
0.000000
  0
LINE
  8
0
  10
-10.000248
  20
19.342520
  30
0.000000
  11
-9.500248
  21
19.342520
  31
0.000000
  0
LINE
  8
0
  10
-9.500248
  20
19.342520
  30
0.000000
  11
-9.500248
  21
19.592520
  31
0.000000
  0
ARC
  8
0
  10
-9.500248
  20
19.717520
  30
0.000000
  40
0.125000
  50
-90.000000
  51
0.000000
  0
ARC
  8
0
  10
-9.500248
  20
19.717520
  30
0.000000
  40
0.125000
  50
0.000000
  51
90.000000
  0
LINE
  8
0
  10
-9.500248
  20
19.842520
  30
0.000000
  11
-10.000248
  21
19.842520
  31
0.000000
  0
ARC
  8
0
  10
-10.000248
  20
19.717520
  30
0.000000
  40
0.125000
  50
90.000000
  51
180.000000
  0
ARC
  8
0
  10
-10.000248
  20
19.717520
  30
0.000000
  40
0.125000
  50
180.000000
  51
-90.000000
  0
LINE
  8
0
  10
-10.000248
  20
19.592520
  30
0.000000
  11
-10.000248
  21
19.342520
  31
0.000000
  0
ARC
  8
0
  10
-9.500248
  20
18.904528
  30
0.000000
  40
0.125000
  50
-90.000000
  51
0.000000
  0
ARC
  8
0
  10
-9.500248
  20
18.904528
  30
0.000000
  40
0.125000
  50
0.000000
  51
90.000000
  0
LINE
  8
0
  10
-9.500248
  20
19.029528
  30
0.000000
  11
-9.500248
  21
19.279528
  31
0.000000
  0
LINE
  8
0
  10
-9.500248
  20
19.279528
  30
0.000000
  11
-10.000248
  21
19.279528
  31
0.000000
  0
LINE
  8
0
  10
-10.000248
  20
19.279528
  30
0.000000
  11
-10.000248
  21
19.029528
  31
0.000000
  0
ARC
  8
0
  10
-10.000248
  20
18.904528
  30
0.000000
  40
0.125000
  50
90.000000
  51
180.000000
  0
ARC
  8
0
  10
-10.000248
  20
18.904528
  30
0.000000
  40
0.125000
  50
180.000000
  51
-90.000000
  0
LINE
  8
0
  10
-10.000248
  20
18.779528
  30
0.000000
  11
-9.500248
  21
18.779528
  31
0.000000
  0
LINE
  8
0
  10
10.000248
  20
19.342520
  30
0.000000
  11
10.000248
  21
19.592520
  31
0.000000
  0
ARC
  8
0
  10
10.000248
  20
19.717520
  30
0.000000
  40
0.125000
  50
-90.000000
  51
0.000000
  0
ARC
  8
0
  10
10.000248
  20
19.717520
  30
0.000000
  40
0.125000
  50
0.000000
  51
90.000000
  0
LINE
  8
0
  10
10.000248
  20
19.842520
  30
0.000000
  11
9.500248
  21
19.842520
  31
0.000000
  0
ARC
  8
0
  10
9.500248
  20
19.717520
  30
0.000000
  40
0.125000
  50
90.000000
  51
180.000000
  0
ARC
  8
0
  10
9.500248
  20
19.717520
  30
0.000000
  40
0.125000
  50
180.000000
  51
-90.000000
  0
LINE
  8
0
  10
9.500248
  20
19.592520
  30
0.000000
  11
9.500248
  21
19.342520
  31
0.000000
  0
LINE
  8
0
  10
9.500248
  20
19.342520
  30
0.000000
  11
10.000248
  21
19.342520
  31
0.000000
  0
LINE
  8
0
  10
9.500248
  20
19.279528
  30
0.000000
  11
9.500248
  21
19.029528
  31
0.000000
  0
ARC
  8
0
  10
9.500248
  20
18.904528
  30
0.000000
  40
0.125000
  50
90.000000
  51
180.000000
  0
ARC
  8
0
  10
9.500248
  20
18.904528
  30
0.000000
  40
0.125000
  50
180.000000
  51
-90.000000
  0
LINE
  8
0
  10
9.500248
  20
18.779528
  30
0.000000
  11
10.000248
  21
18.779528
  31
0.000000
  0
ARC
  8
0
  10
10.000248
  20
18.904528
  30
0.000000
  40
0.125000
  50
-90.000000
  51
0.000000
  0
ARC
  8
0
  10
10.000248
  20
18.904528
  30
0.000000
  40
0.125000
  50
0.000000
  51
90.000000
  0
LINE
  8
0
  10
10.000248
  20
19.029528
  30
0.000000
  11
10.000248
  21
19.279528
  31
0.000000
  0
LINE
  8
0
  10
10.000248
  20
19.279528
  30
0.000000
  11
9.500248
  21
19.279528
  31
0.000000
  0
LINE
  8
0
  10
-10.000248
  20
15.090551
  30
0.000000
  11
-9.500248
  21
15.090551
  31
0.000000
  0
LINE
  8
0
  10
-9.500248
  20
15.090551
  30
0.000000
  11
-9.500248
  21
15.340551
  31
0.000000
  0
ARC
  8
0
  10
-9.500248
  20
15.465551
  30
0.000000
  40
0.125000
  50
-90.000000
  51
0.000000
  0
ARC
  8
0
  10
-9.500248
  20
15.465551
  30
0.000000
  40
0.125000
  50
0.000000
  51
90.000000
  0
LINE
  8
0
  10
-9.500248
  20
15.590551
  30
0.000000
  11
-10.000248
  21
15.590551
  31
0.000000
  0
ARC
  8
0
  10
-10.000248
  20
15.465551
  30
0.000000
  40
0.125000
  50
90.000000
  51
180.000000
  0
ARC
  8
0
  10
-10.000248
  20
15.465551
  30
0.000000
  40
0.125000
  50
180.000000
  51
-90.000000
  0
LINE
  8
0
  10
-10.000248
  20
15.340551
  30
0.000000
  11
-10.000248
  21
15.090551
  31
0.000000
  0
ARC
  8
0
  10
-9.500248
  20
14.652559
  30
0.000000
  40
0.125000
  50
-90.000000
  51
0.000000
  0
ARC
  8
0
  10
-9.500248
  20
14.652559
  30
0.000000
  40
0.125000
  50
0.000000
  51
90.000000
  0
LINE
  8
0
  10
-9.500248
  20
14.777559
  30
0.000000
  11
-9.500248
  21
15.027559
  31
0.000000
  0
LINE
  8
0
  10
-9.500248
  20
15.027559
  30
0.000000
  11
-10.000248
  21
15.027559
  31
0.000000
  0
LINE
  8
0
  10
-10.000248
  20
15.027559
  30
0.000000
  11
-10.000248
  21
14.777559
  31
0.000000
  0
ARC
  8
0
  10
-10.000248
  20
14.652559
  30
0.000000
  40
0.125000
  50
90.000000
  51
180.000000
  0
ARC
  8
0
  10
-10.000248
  20
14.652559
  30
0.000000
  40
0.125000
  50
180.000000
  51
-90.000000
  0
LINE
  8
0
  10
-10.000248
  20
14.527559
  30
0.000000
  11
-9.500248
  21
14.527559
  31
0.000000
  0
LINE
  8
0
  10
10.000248
  20
15.090551
  30
0.000000
  11
10.000248
  21
15.340551
  31
0.000000
  0
ARC
  8
0
  10
10.000248
  20
15.465551
  30
0.000000
  40
0.125000
  50
-90.000000
  51
0.000000
  0
ARC
  8
0
  10
10.000248
  20
15.465551
  30
0.000000
  40
0.125000
  50
0.000000
  51
90.000000
  0
LINE
  8
0
  10
10.000248
  20
15.590551
  30
0.000000
  11
9.500248
  21
15.590551
  31
0.000000
  0
ARC
  8
0
  10
9.500248
  20
15.465551
  30
0.000000
  40
0.125000
  50
90.000000
  51
-180.000000
  0
ARC
  8
0
  10
9.500248
  20
15.465551
  30
0.000000
  40
0.125000
  50
180.000000
  51
-90.000000
  0
LINE
  8
0
  10
9.500248
  20
15.340551
  30
0.000000
  11
9.500248
  21
15.090551
  31
0.000000
  0
LINE
  8
0
  10
9.500248
  20
15.090551
  30
0.000000
  11
10.000248
  21
15.090551
  31
0.000000
  0
LINE
  8
0
  10
9.500248
  20
15.027559
  30
0.000000
  11
9.500248
  21
14.777559
  31
0.000000
  0
ARC
  8
0
  10
9.500248
  20
14.652559
  30
0.000000
  40
0.125000
  50
90.000000
  51
-180.000000
  0
ARC
  8
0
  10
9.500248
  20
14.652559
  30
0.000000
  40
0.125000
  50
180.000000
  51
-90.000000
  0
LINE
  8
0
  10
9.500248
  20
14.527559
  30
0.000000
  11
10.000248
  21
14.527559
  31
0.000000
  0
ARC
  8
0
  10
10.000248
  20
14.652559
  30
0.000000
  40
0.125000
  50
-90.000000
  51
0.000000
  0
ARC
  8
0
  10
10.000248
  20
14.652559
  30
0.000000
  40
0.125000
  50
0.000000
  51
90.000000
  0
LINE
  8
0
  10
10.000248
  20
14.777559
  30
0.000000
  11
10.000248
  21
15.027559
  31
0.000000
  0
LINE
  8
0
  10
10.000248
  20
15.027559
  30
0.000000
  11
9.500248
  21
15.027559
  31
0.000000
  0
LINE
  8
0
  10
-10.000248
  20
-14.673229
  30
0.000000
  11
-9.500248
  21
-14.673229
  31
0.000000
  0
LINE
  8
0
  10
-9.500248
  20
-14.673229
  30
0.000000
  11
-9.500248
  21
-14.423229
  31
0.000000
  0
ARC
  8
0
  10
-9.500248
  20
-14.298229
  30
0.000000
  40
0.125000
  50
-90.000000
  51
0.000000
  0
ARC
  8
0
  10
-9.500248
  20
-14.298229
  30
0.000000
  40
0.125000
  50
-0.000000
  51
90.000000
  0
LINE
  8
0
  10
-9.500248
  20
-14.173229
  30
0.000000
  11
-10.000248
  21
-14.173229
  31
0.000000
  0
ARC
  8
0
  10
-10.000248
  20
-14.298229
  30
0.000000
  40
0.125000
  50
90.000000
  51
180.000000
  0
ARC
  8
0
  10
-10.000248
  20
-14.298229
  30
0.000000
  40
0.125000
  50
180.000000
  51
-90.000000
  0
LINE
  8
0
  10
-10.000248
  20
-14.423229
  30
0.000000
  11
-10.000248
  21
-14.673229
  31
0.000000
  0
ARC
  8
0
  10
-9.500248
  20
-15.111221
  30
0.000000
  40
0.125000
  50
-90.000000
  51
0.000000
  0
ARC
  8
0
  10
-9.500248
  20
-15.111221
  30
0.000000
  40
0.125000
  50
0.000000
  51
90.000000
  0
LINE
  8
0
  10
-9.500248
  20
-14.986221
  30
0.000000
  11
-9.500248
  21
-14.736221
  31
0.000000
  0
LINE
  8
0
  10
-9.500248
  20
-14.736221
  30
0.000000
  11
-10.000248
  21
-14.736221
  31
0.000000
  0
LINE
  8
0
  10
-10.000248
  20
-14.736221
  30
0.000000
  11
-10.000248
  21
-14.986221
  31
0.000000
  0
ARC
  8
0
  10
-10.000248
  20
-15.111221
  30
0.000000
  40
0.125000
  50
90.000000
  51
180.000000
  0
ARC
  8
0
  10
-10.000248
  20
-15.111221
  30
0.000000
  40
0.125000
  50
180.000000
  51
-90.000000
  0
LINE
  8
0
  10
-10.000248
  20
-15.236221
  30
0.000000
  11
-9.500248
  21
-15.236221
  31
0.000000
  0
LINE
  8
0
  10
10.000248
  20
-14.673229
  30
0.000000
  11
10.000248
  21
-14.423229
  31
0.000000
  0
ARC
  8
0
  10
10.000248
  20
-14.298229
  30
0.000000
  40
0.125000
  50
-90.000000
  51
0.000000
  0
ARC
  8
0
  10
10.000248
  20
-14.298229
  30
0.000000
  40
0.125000
  50
0.000000
  51
90.000000
  0
LINE
  8
0
  10
10.000248
  20
-14.173229
  30
0.000000
  11
9.500248
  21
-14.173229
  31
0.000000
  0
ARC
  8
0
  10
9.500248
  20
-14.298229
  30
0.000000
  40
0.125000
  50
90.000000
  51
180.000000
  0
ARC
  8
0
  10
9.500248
  20
-14.298229
  30
0.000000
  40
0.125000
  50
180.000000
  51
-90.000000
  0
LINE
  8
0
  10
9.500248
  20
-14.423229
  30
0.000000
  11
9.500248
  21
-14.673229
  31
0.000000
  0
LINE
  8
0
  10
9.500248
  20
-14.673229
  30
0.000000
  11
10.000248
  21
-14.673229
  31
0.000000
  0
LINE
  8
0
  10
9.500248
  20
-14.736221
  30
0.000000
  11
9.500248
  21
-14.986221
  31
0.000000
  0
ARC
  8
0
  10
9.500248
  20
-15.111221
  30
0.000000
  40
0.125000
  50
90.000000
  51
180.000000
  0
ARC
  8
0
  10
9.500248
  20
-15.111221
  30
0.000000
  40
0.125000
  50
-180.000000
  51
-90.000000
  0
LINE
  8
0
  10
9.500248
  20
-15.236221
  30
0.000000
  11
10.000248
  21
-15.236221
  31
0.000000
  0
ARC
  8
0
  10
10.000248
  20
-15.111221
  30
0.000000
  40
0.125000
  50
-90.000000
  51
0.000000
  0
ARC
  8
0
  10
10.000248
  20
-15.111221
  30
0.000000
  40
0.125000
  50
0.000000
  51
90.000000
  0
LINE
  8
0
  10
10.000248
  20
-14.986221
  30
0.000000
  11
10.000248
  21
-14.736221
  31
0.000000
  0
LINE
  8
0
  10
10.000248
  20
-14.736221
  30
0.000000
  11
9.500248
  21
-14.736221
  31
0.000000
  0
LINE
  8
0
  10
-10.000248
  20
10.838583
  30
0.000000
  11
-9.500248
  21
10.838583
  31
0.000000
  0
LINE
  8
0
  10
-9.500248
  20
10.838583
  30
0.000000
  11
-9.500248
  21
11.088583
  31
0.000000
  0
ARC
  8
0
  10
-9.500248
  20
11.213583
  30
0.000000
  40
0.125000
  50
-90.000000
  51
0.000000
  0
ARC
  8
0
  10
-9.500248
  20
11.213583
  30
0.000000
  40
0.125000
  50
0.000000
  51
90.000000
  0
LINE
  8
0
  10
-9.500248
  20
11.338583
  30
0.000000
  11
-10.000248
  21
11.338583
  31
0.000000
  0
ARC
  8
0
  10
-10.000248
  20
11.213583
  30
0.000000
  40
0.125000
  50
90.000000
  51
180.000000
  0
ARC
  8
0
  10
-10.000248
  20
11.213583
  30
0.000000
  40
0.125000
  50
180.000000
  51
-90.000000
  0
LINE
  8
0
  10
-10.000248
  20
11.088583
  30
0.000000
  11
-10.000248
  21
10.838583
  31
0.000000
  0
ARC
  8
0
  10
-9.500248
  20
10.400591
  30
0.000000
  40
0.125000
  50
-90.000000
  51
0.000000
  0
ARC
  8
0
  10
-9.500248
  20
10.400591
  30
0.000000
  40
0.125000
  50
0.000000
  51
90.000000
  0
LINE
  8
0
  10
-9.500248
  20
10.525591
  30
0.000000
  11
-9.500248
  21
10.775591
  31
0.000000
  0
LINE
  8
0
  10
-9.500248
  20
10.775591
  30
0.000000
  11
-10.000248
  21
10.775591
  31
0.000000
  0
LINE
  8
0
  10
-10.000248
  20
10.775591
  30
0.000000
  11
-10.000248
  21
10.525591
  31
0.000000
  0
ARC
  8
0
  10
-10.000248
  20
10.400591
  30
0.000000
  40
0.125000
  50
90.000000
  51
180.000000
  0
ARC
  8
0
  10
-10.000248
  20
10.400591
  30
0.000000
  40
0.125000
  50
180.000000
  51
-90.000000
  0
LINE
  8
0
  10
-10.000248
  20
10.275591
  30
0.000000
  11
-9.500248
  21
10.275591
  31
0.000000
  0
LINE
  8
0
  10
10.000248
  20
10.838583
  30
0.000000
  11
10.000248
  21
11.088583
  31
0.000000
  0
ARC
  8
0
  10
10.000248
  20
11.213583
  30
0.000000
  40
0.125000
  50
-90.000000
  51
0.000000
  0
ARC
  8
0
  10
10.000248
  20
11.213583
  30
0.000000
  40
0.125000
  50
0.000000
  51
90.000000
  0
LINE
  8
0
  10
10.000248
  20
11.338583
  30
0.000000
  11
9.500248
  21
11.338583
  31
0.000000
  0
ARC
  8
0
  10
9.500248
  20
11.213583
  30
0.000000
  40
0.125000
  50
90.000000
  51
180.000000
  0
ARC
  8
0
  10
9.500248
  20
11.213583
  30
0.000000
  40
0.125000
  50
180.000000
  51
-90.000000
  0
LINE
  8
0
  10
9.500248
  20
11.088583
  30
0.000000
  11
9.500248
  21
10.838583
  31
0.000000
  0
LINE
  8
0
  10
9.500248
  20
10.838583
  30
0.000000
  11
10.000248
  21
10.838583
  31
0.000000
  0
LINE
  8
0
  10
9.500248
  20
10.775591
  30
0.000000
  11
9.500248
  21
10.525591
  31
0.000000
  0
ARC
  8
0
  10
9.500248
  20
10.400591
  30
0.000000
  40
0.125000
  50
90.000000
  51
-180.000000
  0
ARC
  8
0
  10
9.500248
  20
10.400591
  30
0.000000
  40
0.125000
  50
180.000000
  51
-90.000000
  0
LINE
  8
0
  10
9.500248
  20
10.275591
  30
0.000000
  11
10.000248
  21
10.275591
  31
0.000000
  0
ARC
  8
0
  10
10.000248
  20
10.400591
  30
0.000000
  40
0.125000
  50
-90.000000
  51
0.000000
  0
ARC
  8
0
  10
10.000248
  20
10.400591
  30
0.000000
  40
0.125000
  50
0.000000
  51
90.000000
  0
LINE
  8
0
  10
10.000248
  20
10.525591
  30
0.000000
  11
10.000248
  21
10.775591
  31
0.000000
  0
LINE
  8
0
  10
10.000248
  20
10.775591
  30
0.000000
  11
9.500248
  21
10.775591
  31
0.000000
  0
LINE
  8
0
  10
-10.000248
  20
6.586614
  30
0.000000
  11
-9.500248
  21
6.586614
  31
0.000000
  0
LINE
  8
0
  10
-9.500248
  20
6.586614
  30
0.000000
  11
-9.500248
  21
6.836614
  31
0.000000
  0
ARC
  8
0
  10
-9.500248
  20
6.961614
  30
0.000000
  40
0.125000
  50
-90.000000
  51
0.000000
  0
ARC
  8
0
  10
-9.500248
  20
6.961614
  30
0.000000
  40
0.125000
  50
0.000000
  51
90.000000
  0
LINE
  8
0
  10
-9.500248
  20
7.086614
  30
0.000000
  11
-10.000248
  21
7.086614
  31
0.000000
  0
ARC
  8
0
  10
-10.000248
  20
6.961614
  30
0.000000
  40
0.125000
  50
90.000000
  51
180.000000
  0
ARC
  8
0
  10
-10.000248
  20
6.961614
  30
0.000000
  40
0.125000
  50
180.000000
  51
-90.000000
  0
LINE
  8
0
  10
-10.000248
  20
6.836614
  30
0.000000
  11
-10.000248
  21
6.586614
  31
0.000000
  0
ARC
  8
0
  10
-9.500248
  20
6.148622
  30
0.000000
  40
0.125000
  50
-90.000000
  51
0.000000
  0
ARC
  8
0
  10
-9.500248
  20
6.148622
  30
0.000000
  40
0.125000
  50
-0.000000
  51
90.000000
  0
LINE
  8
0
  10
-9.500248
  20
6.273622
  30
0.000000
  11
-9.500248
  21
6.523622
  31
0.000000
  0
LINE
  8
0
  10
-9.500248
  20
6.523622
  30
0.000000
  11
-10.000248
  21
6.523622
  31
0.000000
  0
LINE
  8
0
  10
-10.000248
  20
6.523622
  30
0.000000
  11
-10.000248
  21
6.273622
  31
0.000000
  0
ARC
  8
0
  10
-10.000248
  20
6.148622
  30
0.000000
  40
0.125000
  50
90.000000
  51
180.000000
  0
ARC
  8
0
  10
-10.000248
  20
6.148622
  30
0.000000
  40
0.125000
  50
180.000000
  51
-90.000000
  0
LINE
  8
0
  10
-10.000248
  20
6.023622
  30
0.000000
  11
-9.500248
  21
6.023622
  31
0.000000
  0
LINE
  8
0
  10
10.000248
  20
6.586614
  30
0.000000
  11
10.000248
  21
6.836614
  31
0.000000
  0
ARC
  8
0
  10
10.000248
  20
6.961614
  30
0.000000
  40
0.125000
  50
-90.000000
  51
0.000000
  0
ARC
  8
0
  10
10.000248
  20
6.961614
  30
0.000000
  40
0.125000
  50
0.000000
  51
90.000000
  0
LINE
  8
0
  10
10.000248
  20
7.086614
  30
0.000000
  11
9.500248
  21
7.086614
  31
0.000000
  0
ARC
  8
0
  10
9.500248
  20
6.961614
  30
0.000000
  40
0.125000
  50
90.000000
  51
180.000000
  0
ARC
  8
0
  10
9.500248
  20
6.961614
  30
0.000000
  40
0.125000
  50
-180.000000
  51
-90.000000
  0
LINE
  8
0
  10
9.500248
  20
6.836614
  30
0.000000
  11
9.500248
  21
6.586614
  31
0.000000
  0
LINE
  8
0
  10
9.500248
  20
6.586614
  30
0.000000
  11
10.000248
  21
6.586614
  31
0.000000
  0
LINE
  8
0
  10
9.500248
  20
6.523622
  30
0.000000
  11
9.500248
  21
6.273622
  31
0.000000
  0
ARC
  8
0
  10
9.500248
  20
6.148622
  30
0.000000
  40
0.125000
  50
90.000000
  51
180.000000
  0
ARC
  8
0
  10
9.500248
  20
6.148622
  30
0.000000
  40
0.125000
  50
-180.000000
  51
-90.000000
  0
LINE
  8
0
  10
9.500248
  20
6.023622
  30
0.000000
  11
10.000248
  21
6.023622
  31
0.000000
  0
ARC
  8
0
  10
10.000248
  20
6.148622
  30
0.000000
  40
0.125000
  50
-90.000000
  51
0.000000
  0
ARC
  8
0
  10
10.000248
  20
6.148622
  30
0.000000
  40
0.125000
  50
0.000000
  51
90.000000
  0
LINE
  8
0
  10
10.000248
  20
6.273622
  30
0.000000
  11
10.000248
  21
6.523622
  31
0.000000
  0
LINE
  8
0
  10
10.000248
  20
6.523622
  30
0.000000
  11
9.500248
  21
6.523622
  31
0.000000
  0
LINE
  8
0
  10
-10.000248
  20
2.334646
  30
0.000000
  11
-9.500248
  21
2.334646
  31
0.000000
  0
LINE
  8
0
  10
-9.500248
  20
2.334646
  30
0.000000
  11
-9.500248
  21
2.584646
  31
0.000000
  0
ARC
  8
0
  10
-9.500248
  20
2.709646
  30
0.000000
  40
0.125000
  50
-90.000000
  51
0.000000
  0
ARC
  8
0
  10
-9.500248
  20
2.709646
  30
0.000000
  40
0.125000
  50
0.000000
  51
90.000000
  0
LINE
  8
0
  10
-9.500248
  20
2.834646
  30
0.000000
  11
-10.000248
  21
2.834646
  31
0.000000
  0
ARC
  8
0
  10
-10.000248
  20
2.709646
  30
0.000000
  40
0.125000
  50
90.000000
  51
180.000000
  0
ARC
  8
0
  10
-10.000248
  20
2.709646
  30
0.000000
  40
0.125000
  50
180.000000
  51
-90.000000
  0
LINE
  8
0
  10
-10.000248
  20
2.584646
  30
0.000000
  11
-10.000248
  21
2.334646
  31
0.000000
  0
ARC
  8
0
  10
-9.500248
  20
1.896654
  30
0.000000
  40
0.125000
  50
-90.000000
  51
0.000000
  0
ARC
  8
0
  10
-9.500248
  20
1.896654
  30
0.000000
  40
0.125000
  50
0.000000
  51
90.000000
  0
LINE
  8
0
  10
-9.500248
  20
2.021654
  30
0.000000
  11
-9.500248
  21
2.271654
  31
0.000000
  0
LINE
  8
0
  10
-9.500248
  20
2.271654
  30
0.000000
  11
-10.000248
  21
2.271654
  31
0.000000
  0
LINE
  8
0
  10
-10.000248
  20
2.271654
  30
0.000000
  11
-10.000248
  21
2.021654
  31
0.000000
  0
ARC
  8
0
  10
-10.000248
  20
1.896654
  30
0.000000
  40
0.125000
  50
90.000000
  51
180.000000
  0
ARC
  8
0
  10
-10.000248
  20
1.896654
  30
0.000000
  40
0.125000
  50
180.000000
  51
-90.000000
  0
LINE
  8
0
  10
-10.000248
  20
1.771654
  30
0.000000
  11
-9.500248
  21
1.771654
  31
0.000000
  0
LINE
  8
0
  10
10.000248
  20
2.334646
  30
0.000000
  11
10.000248
  21
2.584646
  31
0.000000
  0
ARC
  8
0
  10
10.000248
  20
2.709646
  30
0.000000
  40
0.125000
  50
-90.000000
  51
0.000000
  0
ARC
  8
0
  10
10.000248
  20
2.709646
  30
0.000000
  40
0.125000
  50
0.000000
  51
90.000000
  0
LINE
  8
0
  10
10.000248
  20
2.834646
  30
0.000000
  11
9.500248
  21
2.834646
  31
0.000000
  0
ARC
  8
0
  10
9.500248
  20
2.709646
  30
0.000000
  40
0.125000
  50
90.000000
  51
180.000000
  0
ARC
  8
0
  10
9.500248
  20
2.709646
  30
0.000000
  40
0.125000
  50
-180.000000
  51
-90.000000
  0
LINE
  8
0
  10
9.500248
  20
2.584646
  30
0.000000
  11
9.500248
  21
2.334646
  31
0.000000
  0
LINE
  8
0
  10
9.500248
  20
2.334646
  30
0.000000
  11
10.000248
  21
2.334646
  31
0.000000
  0
LINE
  8
0
  10
9.500248
  20
2.271654
  30
0.000000
  11
9.500248
  21
2.021654
  31
0.000000
  0
ARC
  8
0
  10
9.500248
  20
1.896654
  30
0.000000
  40
0.125000
  50
90.000000
  51
180.000000
  0
ARC
  8
0
  10
9.500248
  20
1.896654
  30
0.000000
  40
0.125000
  50
-180.000000
  51
-90.000000
  0
LINE
  8
0
  10
9.500248
  20
1.771654
  30
0.000000
  11
10.000248
  21
1.771654
  31
0.000000
  0
ARC
  8
0
  10
10.000248
  20
1.896654
  30
0.000000
  40
0.125000
  50
-90.000000
  51
0.000000
  0
ARC
  8
0
  10
10.000248
  20
1.896654
  30
0.000000
  40
0.125000
  50
0.000000
  51
90.000000
  0
LINE
  8
0
  10
10.000248
  20
2.021654
  30
0.000000
  11
10.000248
  21
2.271654
  31
0.000000
  0
LINE
  8
0
  10
10.000248
  20
2.271654
  30
0.000000
  11
9.500248
  21
2.271654
  31
0.000000
  0
LINE
  8
0
  10
-10.000248
  20
-1.917323
  30
0.000000
  11
-9.500248
  21
-1.917323
  31
0.000000
  0
LINE
  8
0
  10
-9.500248
  20
-1.917323
  30
0.000000
  11
-9.500248
  21
-1.667323
  31
0.000000
  0
ARC
  8
0
  10
-9.500248
  20
-1.542323
  30
0.000000
  40
0.125000
  50
-90.000000
  51
0.000000
  0
ARC
  8
0
  10
-9.500248
  20
-1.542323
  30
0.000000
  40
0.125000
  50
0.000000
  51
90.000000
  0
LINE
  8
0
  10
-9.500248
  20
-1.417323
  30
0.000000
  11
-10.000248
  21
-1.417323
  31
0.000000
  0
ARC
  8
0
  10
-10.000248
  20
-1.542323
  30
0.000000
  40
0.125000
  50
90.000000
  51
180.000000
  0
ARC
  8
0
  10
-10.000248
  20
-1.542323
  30
0.000000
  40
0.125000
  50
180.000000
  51
-90.000000
  0
LINE
  8
0
  10
-10.000248
  20
-1.667323
  30
0.000000
  11
-10.000248
  21
-1.917323
  31
0.000000
  0
ARC
  8
0
  10
-9.500248
  20
-2.355315
  30
0.000000
  40
0.125000
  50
-90.000000
  51
0.000000
  0
ARC
  8
0
  10
-9.500248
  20
-2.355315
  30
0.000000
  40
0.125000
  50
0.000000
  51
90.000000
  0
LINE
  8
0
  10
-9.500248
  20
-2.230315
  30
0.000000
  11
-9.500248
  21
-1.980315
  31
0.000000
  0
LINE
  8
0
  10
-9.500248
  20
-1.980315
  30
0.000000
  11
-10.000248
  21
-1.980315
  31
0.000000
  0
LINE
  8
0
  10
-10.000248
  20
-1.980315
  30
0.000000
  11
-10.000248
  21
-2.230315
  31
0.000000
  0
ARC
  8
0
  10
-10.000248
  20
-2.355315
  30
0.000000
  40
0.125000
  50
90.000000
  51
180.000000
  0
ARC
  8
0
  10
-10.000248
  20
-2.355315
  30
0.000000
  40
0.125000
  50
180.000000
  51
-90.000000
  0
LINE
  8
0
  10
-10.000248
  20
-2.480315
  30
0.000000
  11
-9.500248
  21
-2.480315
  31
0.000000
  0
LINE
  8
0
  10
10.000248
  20
-1.917323
  30
0.000000
  11
10.000248
  21
-1.667323
  31
0.000000
  0
ARC
  8
0
  10
10.000248
  20
-1.542323
  30
0.000000
  40
0.125000
  50
-90.000000
  51
0.000000
  0
ARC
  8
0
  10
10.000248
  20
-1.542323
  30
0.000000
  40
0.125000
  50
0.000000
  51
90.000000
  0
LINE
  8
0
  10
10.000248
  20
-1.417323
  30
0.000000
  11
9.500248
  21
-1.417323
  31
0.000000
  0
ARC
  8
0
  10
9.500248
  20
-1.542323
  30
0.000000
  40
0.125000
  50
90.000000
  51
180.000000
  0
ARC
  8
0
  10
9.500248
  20
-1.542323
  30
0.000000
  40
0.125000
  50
180.000000
  51
-90.000000
  0
LINE
  8
0
  10
9.500248
  20
-1.667323
  30
0.000000
  11
9.500248
  21
-1.917323
  31
0.000000
  0
LINE
  8
0
  10
9.500248
  20
-1.917323
  30
0.000000
  11
10.000248
  21
-1.917323
  31
0.000000
  0
LINE
  8
0
  10
9.500248
  20
-1.980315
  30
0.000000
  11
9.500248
  21
-2.230315
  31
0.000000
  0
ARC
  8
0
  10
9.500248
  20
-2.355315
  30
0.000000
  40
0.125000
  50
90.000000
  51
180.000000
  0
ARC
  8
0
  10
9.500248
  20
-2.355315
  30
0.000000
  40
0.125000
  50
180.000000
  51
-90.000000
  0
LINE
  8
0
  10
9.500248
  20
-2.480315
  30
0.000000
  11
10.000248
  21
-2.480315
  31
0.000000
  0
ARC
  8
0
  10
10.000248
  20
-2.355315
  30
0.000000
  40
0.125000
  50
-90.000000
  51
0.000000
  0
ARC
  8
0
  10
10.000248
  20
-2.355315
  30
0.000000
  40
0.125000
  50
0.000000
  51
90.000000
  0
LINE
  8
0
  10
10.000248
  20
-2.230315
  30
0.000000
  11
10.000248
  21
-1.980315
  31
0.000000
  0
LINE
  8
0
  10
10.000248
  20
-1.980315
  30
0.000000
  11
9.500248
  21
-1.980315
  31
0.000000
  0
LINE
  8
0
  10
-10.000248
  20
-6.169291
  30
0.000000
  11
-9.500248
  21
-6.169291
  31
0.000000
  0
LINE
  8
0
  10
-9.500248
  20
-6.169291
  30
0.000000
  11
-9.500248
  21
-5.919291
  31
0.000000
  0
ARC
  8
0
  10
-9.500248
  20
-5.794291
  30
0.000000
  40
0.125000
  50
-90.000000
  51
-0.000000
  0
ARC
  8
0
  10
-9.500248
  20
-5.794291
  30
0.000000
  40
0.125000
  50
0.000000
  51
90.000000
  0
LINE
  8
0
  10
-9.500248
  20
-5.669291
  30
0.000000
  11
-10.000248
  21
-5.669291
  31
0.000000
  0
ARC
  8
0
  10
-10.000248
  20
-5.794291
  30
0.000000
  40
0.125000
  50
90.000000
  51
180.000000
  0
ARC
  8
0
  10
-10.000248
  20
-5.794291
  30
0.000000
  40
0.125000
  50
180.000000
  51
-90.000000
  0
LINE
  8
0
  10
-10.000248
  20
-5.919291
  30
0.000000
  11
-10.000248
  21
-6.169291
  31
0.000000
  0
ARC
  8
0
  10
-9.500248
  20
-6.607284
  30
0.000000
  40
0.125000
  50
-90.000000
  51
0.000000
  0
ARC
  8
0
  10
-9.500248
  20
-6.607284
  30
0.000000
  40
0.125000
  50
-0.000000
  51
90.000000
  0
LINE
  8
0
  10
-9.500248
  20
-6.482284
  30
0.000000
  11
-9.500248
  21
-6.232284
  31
0.000000
  0
LINE
  8
0
  10
-9.500248
  20
-6.232284
  30
0.000000
  11
-10.000248
  21
-6.232284
  31
0.000000
  0
LINE
  8
0
  10
-10.000248
  20
-6.232284
  30
0.000000
  11
-10.000248
  21
-6.482284
  31
0.000000
  0
ARC
  8
0
  10
-10.000248
  20
-6.607284
  30
0.000000
  40
0.125000
  50
90.000000
  51
180.000000
  0
ARC
  8
0
  10
-10.000248
  20
-6.607284
  30
0.000000
  40
0.125000
  50
180.000000
  51
-90.000000
  0
LINE
  8
0
  10
-10.000248
  20
-6.732284
  30
0.000000
  11
-9.500248
  21
-6.732284
  31
0.000000
  0
LINE
  8
0
  10
10.000248
  20
-6.169291
  30
0.000000
  11
10.000248
  21
-5.919291
  31
0.000000
  0
ARC
  8
0
  10
10.000248
  20
-5.794291
  30
0.000000
  40
0.125000
  50
-90.000000
  51
0.000000
  0
ARC
  8
0
  10
10.000248
  20
-5.794291
  30
0.000000
  40
0.125000
  50
0.000000
  51
90.000000
  0
LINE
  8
0
  10
10.000248
  20
-5.669291
  30
0.000000
  11
9.500248
  21
-5.669291
  31
0.000000
  0
ARC
  8
0
  10
9.500248
  20
-5.794291
  30
0.000000
  40
0.125000
  50
90.000000
  51
180.000000
  0
ARC
  8
0
  10
9.500248
  20
-5.794291
  30
0.000000
  40
0.125000
  50
180.000000
  51
-90.000000
  0
LINE
  8
0
  10
9.500248
  20
-5.919291
  30
0.000000
  11
9.500248
  21
-6.169291
  31
0.000000
  0
LINE
  8
0
  10
9.500248
  20
-6.169291
  30
0.000000
  11
10.000248
  21
-6.169291
  31
0.000000
  0
LINE
  8
0
  10
9.500248
  20
-6.232284
  30
0.000000
  11
9.500248
  21
-6.482284
  31
0.000000
  0
ARC
  8
0
  10
9.500248
  20
-6.607284
  30
0.000000
  40
0.125000
  50
90.000000
  51
180.000000
  0
ARC
  8
0
  10
9.500248
  20
-6.607284
  30
0.000000
  40
0.125000
  50
180.000000
  51
-90.000000
  0
LINE
  8
0
  10
9.500248
  20
-6.732284
  30
0.000000
  11
10.000248
  21
-6.732284
  31
0.000000
  0
ARC
  8
0
  10
10.000248
  20
-6.607284
  30
0.000000
  40
0.125000
  50
-90.000000
  51
0.000000
  0
ARC
  8
0
  10
10.000248
  20
-6.607284
  30
0.000000
  40
0.125000
  50
0.000000
  51
90.000000
  0
LINE
  8
0
  10
10.000248
  20
-6.482284
  30
0.000000
  11
10.000248
  21
-6.232284
  31
0.000000
  0
LINE
  8
0
  10
10.000248
  20
-6.232284
  30
0.000000
  11
9.500248
  21
-6.232284
  31
0.000000
  0
LINE
  8
0
  10
-10.000248
  20
-10.421260
  30
0.000000
  11
-9.500248
  21
-10.421260
  31
0.000000
  0
LINE
  8
0
  10
-9.500248
  20
-10.421260
  30
0.000000
  11
-9.500248
  21
-10.171260
  31
0.000000
  0
ARC
  8
0
  10
-9.500248
  20
-10.046260
  30
0.000000
  40
0.125000
  50
-90.000000
  51
0.000000
  0
ARC
  8
0
  10
-9.500248
  20
-10.046260
  30
0.000000
  40
0.125000
  50
0.000000
  51
90.000000
  0
LINE
  8
0
  10
-9.500248
  20
-9.921260
  30
0.000000
  11
-10.000248
  21
-9.921260
  31
0.000000
  0
ARC
  8
0
  10
-10.000248
  20
-10.046260
  30
0.000000
  40
0.125000
  50
90.000000
  51
180.000000
  0
ARC
  8
0
  10
-10.000248
  20
-10.046260
  30
0.000000
  40
0.125000
  50
180.000000
  51
-90.000000
  0
LINE
  8
0
  10
-10.000248
  20
-10.171260
  30
0.000000
  11
-10.000248
  21
-10.421260
  31
0.000000
  0
ARC
  8
0
  10
-9.500248
  20
-10.859252
  30
0.000000
  40
0.125000
  50
-90.000000
  51
0.000000
  0
ARC
  8
0
  10
-9.500248
  20
-10.859252
  30
0.000000
  40
0.125000
  50
0.000000
  51
90.000000
  0
LINE
  8
0
  10
-9.500248
  20
-10.734252
  30
0.000000
  11
-9.500248
  21
-10.484252
  31
0.000000
  0
LINE
  8
0
  10
-9.500248
  20
-10.484252
  30
0.000000
  11
-10.000248
  21
-10.484252
  31
0.000000
  0
LINE
  8
0
  10
-10.000248
  20
-10.484252
  30
0.000000
  11
-10.000248
  21
-10.734252
  31
0.000000
  0
ARC
  8
0
  10
-10.000248
  20
-10.859252
  30
0.000000
  40
0.125000
  50
90.000000
  51
180.000000
  0
ARC
  8
0
  10
-10.000248
  20
-10.859252
  30
0.000000
  40
0.125000
  50
180.000000
  51
-90.000000
  0
LINE
  8
0
  10
-10.000248
  20
-10.984252
  30
0.000000
  11
-9.500248
  21
-10.984252
  31
0.000000
  0
LINE
  8
0
  10
10.000248
  20
-10.421260
  30
0.000000
  11
10.000248
  21
-10.171260
  31
0.000000
  0
ARC
  8
0
  10
10.000248
  20
-10.046260
  30
0.000000
  40
0.125000
  50
-90.000000
  51
0.000000
  0
ARC
  8
0
  10
10.000248
  20
-10.046260
  30
0.000000
  40
0.125000
  50
0.000000
  51
90.000000
  0
LINE
  8
0
  10
10.000248
  20
-9.921260
  30
0.000000
  11
9.500248
  21
-9.921260
  31
0.000000
  0
ARC
  8
0
  10
9.500248
  20
-10.046260
  30
0.000000
  40
0.125000
  50
90.000000
  51
180.000000
  0
ARC
  8
0
  10
9.500248
  20
-10.046260
  30
0.000000
  40
0.125000
  50
180.000000
  51
-90.000000
  0
LINE
  8
0
  10
9.500248
  20
-10.171260
  30
0.000000
  11
9.500248
  21
-10.421260
  31
0.000000
  0
LINE
  8
0
  10
9.500248
  20
-10.421260
  30
0.000000
  11
10.000248
  21
-10.421260
  31
0.000000
  0
LINE
  8
0
  10
9.500248
  20
-10.484252
  30
0.000000
  11
9.500248
  21
-10.734252
  31
0.000000
  0
ARC
  8
0
  10
9.500248
  20
-10.859252
  30
0.000000
  40
0.125000
  50
90.000000
  51
180.000000
  0
ARC
  8
0
  10
9.500248
  20
-10.859252
  30
0.000000
  40
0.125000
  50
180.000000
  51
-90.000000
  0
LINE
  8
0
  10
9.500248
  20
-10.984252
  30
0.000000
  11
10.000248
  21
-10.984252
  31
0.000000
  0
ARC
  8
0
  10
10.000248
  20
-10.859252
  30
0.000000
  40
0.125000
  50
-90.000000
  51
0.000000
  0
ARC
  8
0
  10
10.000248
  20
-10.859252
  30
0.000000
  40
0.125000
  50
0.000000
  51
90.000000
  0
LINE
  8
0
  10
10.000248
  20
-10.734252
  30
0.000000
  11
10.000248
  21
-10.484252
  31
0.000000
  0
LINE
  8
0
  10
10.000248
  20
-10.484252
  30
0.000000
  11
9.500248
  21
-10.484252
  31
0.000000
  0
ENDSEC
  0
EOF
