  999
file created by SolveSpace
  0
SECTION
  2
HEADER
  9
$ACADVER
  1
AC1006
  9
$ANGDIR
  70
0
  9
$AUNITS
  70
0
  9
$AUPREC
  70
0
  9
$INSBASE
  10
0.0
  20
0.0
  30
0.0
  9
$EXTMIN
  10
0.0
  20
0.0
  9
$EXTMAX
  10
10000.0
  20
10000.0
  0
ENDSEC
  0
SECTION
  2
ENTITIES
  0
ARC
  8
0
  10
8.593372
  20
-3.402283
  30
0.000000
  40
0.130000
  50
90.000000
  51
180.000000
  0
ARC
  8
0
  10
8.593372
  20
-3.402283
  30
0.000000
  40
0.130000
  50
-0.000000
  51
90.000000
  0
LINE
  8
0
  10
8.723372
  20
-3.402283
  30
0.000000
  11
8.723372
  21
-3.579449
  31
0.000000
  0
LINE
  8
0
  10
8.723372
  20
-3.579449
  30
0.000000
  11
8.973372
  21
-3.579449
  31
0.000000
  0
LINE
  8
0
  10
8.973372
  20
-3.579449
  30
0.000000
  11
8.973372
  21
-3.047953
  31
0.000000
  0
LINE
  8
0
  10
8.973372
  20
-3.047953
  30
0.000000
  11
8.463372
  21
-3.047953
  31
0.000000
  0
ARC
  8
0
  10
5.362345
  20
-3.047953
  30
0.000000
  40
3.101027
  50
0.000000
  51
45.827258
  0
ARC
  8
0
  10
7.602555
  20
-0.720783
  30
0.000000
  40
0.130000
  50
142.388339
  51
-127.611661
  0
ARC
  8
0
  10
7.602555
  20
-0.720783
  30
0.000000
  40
0.130000
  50
52.388339
  51
142.388339
  0
LINE
  8
0
  10
7.681894
  20
-0.617802
  30
0.000000
  11
7.822239
  21
-0.725927
  31
0.000000
  0
LINE
  8
0
  10
7.822239
  20
-0.725927
  30
0.000000
  11
7.974815
  21
-0.527886
  31
0.000000
  0
LINE
  8
0
  10
7.974815
  20
-0.527886
  30
0.000000
  11
7.132750
  21
0.120865
  31
0.000000
  0
LINE
  8
0
  10
7.132750
  20
0.120865
  30
0.000000
  11
6.980173
  21
-0.077176
  31
0.000000
  0
LINE
  8
0
  10
6.980173
  20
-0.077176
  30
0.000000
  11
7.120517
  21
-0.185301
  31
0.000000
  0
ARC
  8
0
  10
7.041177
  20
-0.288283
  30
0.000000
  40
0.130000
  50
-37.611661
  51
52.388339
  0
ARC
  8
0
  10
7.041177
  20
-0.288283
  30
0.000000
  40
0.130000
  50
-127.611661
  51
-37.611661
  0
ARC
  8
0
  10
5.362345
  20
-3.047953
  30
0.000000
  40
3.101027
  50
58.949420
  51
90.000000
  0
LINE
  8
0
  10
5.362345
  20
0.053075
  30
0.000000
  11
3.499592
  21
0.053075
  31
0.000000
  0
ARC
  8
0
  10
3.499592
  20
0.183075
  30
0.000000
  40
0.130000
  50
-180.000000
  51
-90.000000
  0
ARC
  8
0
  10
3.499592
  20
0.183075
  30
0.000000
  40
0.130000
  50
90.000000
  51
180.000000
  0
LINE
  8
0
  10
3.499592
  20
0.313075
  30
0.000000
  11
3.676758
  21
0.313075
  31
0.000000
  0
LINE
  8
0
  10
3.676758
  20
0.313075
  30
0.000000
  11
3.676758
  21
0.563075
  31
0.000000
  0
LINE
  8
0
  10
3.676758
  20
0.563075
  30
0.000000
  11
2.613765
  21
0.563075
  31
0.000000
  0
LINE
  8
0
  10
2.613765
  20
0.563075
  30
0.000000
  11
2.613765
  21
0.313075
  31
0.000000
  0
LINE
  8
0
  10
2.613765
  20
0.313075
  30
0.000000
  11
2.790931
  21
0.313075
  31
0.000000
  0
ARC
  8
0
  10
2.790931
  20
0.183075
  30
0.000000
  40
0.130000
  50
0.000000
  51
90.000000
  0
ARC
  8
0
  10
2.790931
  20
0.183075
  30
0.000000
  40
0.130000
  50
-90.000000
  51
0.000000
  0
LINE
  8
0
  10
2.790931
  20
0.053075
  30
0.000000
  11
-0.752376
  21
0.053075
  31
0.000000
  0
ARC
  8
0
  10
-0.752376
  20
0.183075
  30
0.000000
  40
0.130000
  50
180.000000
  51
-90.000000
  0
ARC
  8
0
  10
-0.752376
  20
0.183075
  30
0.000000
  40
0.130000
  50
90.000000
  51
180.000000
  0
LINE
  8
0
  10
-0.752376
  20
0.313075
  30
0.000000
  11
-0.575211
  21
0.313075
  31
0.000000
  0
LINE
  8
0
  10
-0.575211
  20
0.313075
  30
0.000000
  11
-0.575211
  21
0.563075
  31
0.000000
  0
LINE
  8
0
  10
-0.575211
  20
0.563075
  30
0.000000
  11
-1.638203
  21
0.563075
  31
0.000000
  0
LINE
  8
0
  10
-1.638203
  20
0.563075
  30
0.000000
  11
-1.638203
  21
0.313075
  31
0.000000
  0
LINE
  8
0
  10
-1.638203
  20
0.313075
  30
0.000000
  11
-1.461038
  21
0.313075
  31
0.000000
  0
ARC
  8
0
  10
-1.461038
  20
0.183075
  30
0.000000
  40
0.130000
  50
0.000000
  51
90.000000
  0
ARC
  8
0
  10
-1.461038
  20
0.183075
  30
0.000000
  40
0.130000
  50
-90.000000
  51
0.000000
  0
LINE
  8
0
  10
-1.461038
  20
0.053075
  30
0.000000
  11
-6.681760
  21
0.053075
  31
0.000000
  0
ARC
  8
0
  10
-6.681760
  20
4.053075
  30
0.000000
  40
4.000000
  50
-170.000000
  51
-90.000000
  0
LINE
  8
0
  10
-10.620991
  20
3.358482
  30
0.000000
  11
-10.836570
  21
4.581090
  31
0.000000
  0
ARC
  8
0
  10
-10.708545
  20
4.603664
  30
0.000000
  40
0.130000
  50
100.000000
  51
-170.000000
  0
ARC
  8
0
  10
-10.708545
  20
4.603664
  30
0.000000
  40
0.130000
  50
10.000000
  51
100.000000
  0
LINE
  8
0
  10
-10.580520
  20
4.626238
  30
0.000000
  11
-10.549755
  21
4.451765
  31
0.000000
  0
LINE
  8
0
  10
-10.549755
  20
4.451765
  30
0.000000
  11
-10.303553
  21
4.495177
  31
0.000000
  0
LINE
  8
0
  10
-10.303553
  20
4.495177
  30
0.000000
  11
-10.488140
  21
5.542020
  31
0.000000
  0
LINE
  8
0
  10
-10.488140
  20
5.542020
  30
0.000000
  11
-10.734342
  21
5.498608
  31
0.000000
  0
LINE
  8
0
  10
-10.734342
  20
5.498608
  30
0.000000
  11
-10.703577
  21
5.324134
  31
0.000000
  0
ARC
  8
0
  10
-10.831602
  20
5.301559
  30
0.000000
  40
0.130000
  50
-80.000000
  51
10.000000
  0
ARC
  8
0
  10
-10.831602
  20
5.301559
  30
0.000000
  40
0.130000
  50
-170.000000
  51
-80.000000
  0
LINE
  8
0
  10
-10.959627
  20
5.278985
  30
0.000000
  11
-11.574916
  21
8.768462
  31
0.000000
  0
ARC
  8
0
  10
-11.446891
  20
8.791036
  30
0.000000
  40
0.130000
  50
100.000000
  51
-170.000000
  0
ARC
  8
0
  10
-11.446891
  20
8.791036
  30
0.000000
  40
0.130000
  50
10.000000
  51
100.000000
  0
LINE
  8
0
  10
-11.318866
  20
8.813610
  30
0.000000
  11
-11.288102
  21
8.639136
  31
0.000000
  0
LINE
  8
0
  10
-11.288102
  20
8.639136
  30
0.000000
  11
-11.041900
  21
8.682548
  31
0.000000
  0
LINE
  8
0
  10
-11.041900
  20
8.682548
  30
0.000000
  11
-11.226486
  21
9.729391
  31
0.000000
  0
LINE
  8
0
  10
-11.226486
  20
9.729391
  30
0.000000
  11
-11.472688
  21
9.685979
  31
0.000000
  0
LINE
  8
0
  10
-11.472688
  20
9.685979
  30
0.000000
  11
-11.441924
  21
9.511505
  31
0.000000
  0
ARC
  8
0
  10
-11.569949
  20
9.488931
  30
0.000000
  40
0.130000
  50
-80.000000
  51
10.000000
  0
ARC
  8
0
  10
-11.569949
  20
9.488931
  30
0.000000
  40
0.130000
  50
-170.000000
  51
-80.000000
  0
LINE
  8
0
  10
-11.697974
  20
9.466357
  30
0.000000
  11
-12.282170
  21
12.779495
  31
0.000000
  0
ARC
  8
0
  10
-16.797359
  20
11.983345
  30
0.000000
  40
4.584844
  50
10.000000
  51
12.237656
  0
ARC
  8
0
  10
-12.192161
  20
12.992473
  30
0.000000
  40
0.130000
  50
106.670068
  51
-163.329932
  0
ARC
  8
0
  10
-12.192161
  20
12.992473
  30
0.000000
  40
0.130000
  50
16.670068
  51
106.670068
  0
LINE
  8
0
  10
-12.067625
  20
13.029765
  30
0.000000
  11
-12.016803
  21
12.860045
  31
0.000000
  0
LINE
  8
0
  10
-12.016803
  20
12.860045
  30
0.000000
  11
-11.777310
  21
12.931760
  31
0.000000
  0
LINE
  8
0
  10
-11.777310
  20
12.931760
  30
0.000000
  11
-12.082240
  21
13.950078
  31
0.000000
  0
LINE
  8
0
  10
-12.082240
  20
13.950078
  30
0.000000
  11
-12.321733
  21
13.878363
  31
0.000000
  0
LINE
  8
0
  10
-12.321733
  20
13.878363
  30
0.000000
  11
-12.270912
  21
13.708643
  31
0.000000
  0
ARC
  8
0
  10
-12.395448
  20
13.671351
  30
0.000000
  40
0.130000
  50
-73.329932
  51
16.670068
  0
ARC
  8
0
  10
-12.395448
  20
13.671351
  30
0.000000
  40
0.130000
  50
-163.329932
  51
-73.329932
  0
ARC
  8
0
  10
-16.797359
  20
11.983345
  30
0.000000
  40
4.584844
  50
21.102480
  51
65.382408
  0
ARC
  8
0
  10
-14.842640
  20
16.273480
  30
0.000000
  40
0.130000
  50
159.814820
  51
-110.185180
  0
ARC
  8
0
  10
-14.842640
  20
16.273480
  30
0.000000
  40
0.130000
  50
69.814820
  51
159.814820
  0
LINE
  8
0
  10
-14.797783
  20
16.395496
  30
0.000000
  11
-14.631498
  21
16.334364
  31
0.000000
  0
LINE
  8
0
  10
-14.631498
  20
16.334364
  30
0.000000
  11
-14.545234
  21
16.569009
  31
0.000000
  0
LINE
  8
0
  10
-14.545234
  20
16.569009
  30
0.000000
  11
-15.542940
  21
16.935801
  31
0.000000
  0
LINE
  8
0
  10
-15.542940
  20
16.935801
  30
0.000000
  11
-15.629204
  21
16.701155
  31
0.000000
  0
LINE
  8
0
  10
-15.629204
  20
16.701155
  30
0.000000
  11
-15.462920
  21
16.640023
  31
0.000000
  0
ARC
  8
0
  10
-15.507777
  20
16.518008
  30
0.000000
  40
0.130000
  50
-20.185180
  51
69.814820
  0
ARC
  8
0
  10
-15.507777
  20
16.518008
  30
0.000000
  40
0.130000
  50
-110.185180
  51
-20.185180
  0
LINE
  8
0
  10
-15.552634
  20
16.395992
  30
0.000000
  11
-16.051487
  21
16.579387
  31
0.000000
  0
LINE
  8
0
  10
-16.051487
  20
16.579387
  30
0.000000
  11
-15.716372
  21
14.678855
  31
0.000000
  0
ARC
  8
0
  10
-15.588347
  20
14.701430
  30
0.000000
  40
0.130000
  50
-170.000000
  51
-113.979647
  0
ARC
  8
0
  10
-16.797359
  20
11.983345
  30
0.000000
  40
2.844844
  50
10.000000
  51
66.020353
  0
LINE
  8
0
  10
-13.995735
  20
12.477347
  30
0.000000
  11
-11.751720
  21
-0.249097
  31
0.000000
  0
ARC
  8
0
  10
-18.774068
  20
-1.487326
  30
0.000000
  40
7.130680
  50
-10.886915
  51
10.000000
  0
LINE
  8
0
  10
-11.771728
  20
-2.834106
  30
0.000000
  11
-14.678419
  21
-17.946926
  31
0.000000
  0
LINE
  8
0
  10
-14.678419
  20
-17.946926
  30
0.000000
  11
-14.175516
  21
-17.946926
  31
0.000000
  0
LINE
  8
0
  10
-14.175516
  20
-17.946926
  30
0.000000
  11
-11.097639
  21
-5.383911
  31
0.000000
  0
ARC
  8
0
  10
-11.067848
  20
-5.262513
  30
0.000000
  40
0.125000
  50
166.233961
  51
-103.787963
  0
ARC
  8
0
  10
-11.067848
  20
-5.262513
  30
0.000000
  40
0.125000
  50
76.255884
  51
166.233961
  0
LINE
  8
0
  10
-11.038149
  20
-5.141093
  30
0.000000
  11
-10.581607
  21
-5.252758
  31
0.000000
  0
ARC
  8
0
  10
-10.611305
  20
-5.374179
  30
0.000000
  40
0.125000
  50
-13.722193
  51
76.255884
  0
ARC
  8
0
  10
-10.611305
  20
-5.374179
  30
0.000000
  40
0.125000
  50
-103.700269
  51
-13.722193
  0
LINE
  8
0
  10
-10.640911
  20
-5.495622
  30
0.000000
  11
-13.681321
  21
-17.946926
  31
0.000000
  0
LINE
  8
0
  10
-13.681321
  20
-17.946926
  30
0.000000
  11
-13.178419
  21
-17.946926
  31
0.000000
  0
LINE
  8
0
  10
-13.178419
  20
-17.946926
  30
0.000000
  11
-8.946748
  21
-4.342724
  31
0.000000
  0
ARC
  8
0
  10
-6.371652
  20
-5.143723
  30
0.000000
  40
2.696798
  50
90.000000
  51
162.721371
  0
LINE
  8
0
  10
-6.371652
  20
-2.446925
  30
0.000000
  11
5.362345
  21
-2.446925
  31
0.000000
  0
ARC
  8
0
  10
5.362345
  20
-3.047953
  30
0.000000
  40
0.601027
  50
3.834697
  51
90.000000
  0
LINE
  8
0
  10
5.962026
  20
-3.007757
  30
0.000000
  11
6.963372
  21
-17.946926
  31
0.000000
  0
LINE
  8
0
  10
6.963372
  20
-17.946926
  30
0.000000
  11
7.473217
  21
-17.946926
  31
0.000000
  0
LINE
  8
0
  10
7.473217
  20
-17.946926
  30
0.000000
  11
7.033573
  21
-5.455036
  31
0.000000
  0
ARC
  8
0
  10
7.029177
  20
-5.330114
  30
0.000000
  40
0.125000
  50
-177.984347
  51
-87.984347
  0
ARC
  8
0
  10
7.029177
  20
-5.330114
  30
0.000000
  40
0.125000
  50
92.015653
  51
-177.984347
  0
LINE
  8
0
  10
7.024780
  20
-5.205191
  30
0.000000
  11
7.494489
  21
-5.188660
  31
0.000000
  0
ARC
  8
0
  10
7.498886
  20
-5.313582
  30
0.000000
  40
0.125000
  50
2.060592
  51
92.015653
  0
ARC
  8
0
  10
7.498886
  20
-5.313582
  30
0.000000
  40
0.125000
  50
-87.894468
  51
2.060592
  0
LINE
  8
0
  10
7.503478
  20
-5.438498
  30
0.000000
  11
7.953527
  21
-17.946926
  31
0.000000
  0
LINE
  8
0
  10
7.953527
  20
-17.946926
  30
0.000000
  11
8.463372
  21
-17.946926
  31
0.000000
  0
LINE
  8
0
  10
8.463372
  20
-17.946926
  30
0.000000
  11
8.463372
  21
-3.402283
  31
0.000000
  0
LINE
  8
0
  10
7.019783
  20
-5.205367
  30
0.000000
  11
6.908572
  21
-2.080303
  31
0.000000
  0
ARC
  8
0
  10
6.904126
  20
-1.955382
  30
0.000000
  40
0.125000
  50
-177.961877
  51
-87.961877
  0
ARC
  8
0
  10
6.904126
  20
-1.955382
  30
0.000000
  40
0.125000
  50
92.038123
  51
-177.961877
  0
LINE
  8
0
  10
6.899681
  20
-1.830461
  30
0.000000
  11
7.379377
  21
-1.813390
  31
0.000000
  0
ARC
  8
0
  10
7.383823
  20
-1.938311
  30
0.000000
  40
0.125000
  50
2.038123
  51
92.038123
  0
ARC
  8
0
  10
7.383823
  20
-1.938311
  30
0.000000
  40
0.125000
  50
-87.961877
  51
2.038123
  0
LINE
  8
0
  10
7.388268
  20
-2.063232
  30
0.000000
  11
7.499486
  21
-5.188484
  31
0.000000
  0
LINE
  8
0
  10
7.499486
  20
-5.188484
  30
0.000000
  11
7.019783
  21
-5.205367
  31
0.000000
  0
LINE
  8
0
  10
-11.043006
  20
-5.139905
  30
0.000000
  11
-10.124044
  21
-1.382746
  31
0.000000
  0
ARC
  8
0
  10
-10.094346
  20
-1.261325
  30
0.000000
  40
0.125000
  50
166.255884
  51
-103.744116
  0
ARC
  8
0
  10
-10.094346
  20
-1.261325
  30
0.000000
  40
0.125000
  50
76.255884
  51
166.255884
  0
LINE
  8
0
  10
-10.064648
  20
-1.139905
  30
0.000000
  11
-9.598392
  21
-1.253946
  31
0.000000
  0
ARC
  8
0
  10
-9.628090
  20
-1.375367
  30
0.000000
  40
0.125000
  50
-13.744116
  51
76.255884
  0
ARC
  8
0
  10
-9.628090
  20
-1.375367
  30
0.000000
  40
0.125000
  50
-103.744116
  51
-13.744116
  0
LINE
  8
0
  10
-9.657788
  20
-1.496788
  30
0.000000
  11
-10.576750
  21
-5.253946
  31
0.000000
  0
LINE
  8
0
  10
-10.576750
  20
-5.253946
  30
0.000000
  11
-11.043006
  21
-5.139905
  31
0.000000
  0
ENDSEC
  0
EOF
